<svg xmlns="http://www.w3.org/2000/svg" version="1.1" xmlns:xlink="http://www.w3.org/1999/xlink" xmlns:svgjs="http://svgjs.com/svgjs" width="1440" height="560" preserveAspectRatio="none" viewBox="0 0 1440 560"><g mask="url(&quot;#SvgjsMask1000&quot;)" fill="none"><rect width="1440" height="560" x="0" y="0" fill="#0e2a47"></rect><path d="M30.18 205.81L95.13 243.31L95.13 318.31L30.18 355.81L-34.77 318.31L-34.77 243.31zM30.18 430.81L95.13 468.31L95.13 543.31L30.18 580.81L-34.77 543.31L-34.77 468.31zM225.04 93.31L290 130.81L290 205.81L225.04 243.31L160.09 205.81L160.09 130.81zM225.04 543.31L290 580.81L290 655.81L225.04 693.31L160.09 655.81L160.09 580.81zM290 205.81L354.95 243.31L354.95 318.31L290 355.81L225.04 318.31L225.04 243.31zM354.95 318.31L419.9 355.81L419.9 430.81L354.95 468.31L290 430.81L290 355.81zM419.9 430.81L484.86 468.31L484.86 543.31L419.9 580.81L354.95 543.31L354.95 468.31zM549.81 205.81L614.76 243.31L614.76 318.31L549.81 355.81L484.86 318.31L484.86 243.31zM679.72 205.81L744.67 243.31L744.67 318.31L679.72 355.81L614.76 318.31L614.76 243.31zM809.62 -19.19L874.58 18.31L874.58 93.31L809.62 130.81L744.67 93.31L744.67 18.31zM874.58 93.31L939.53 130.81L939.53 205.81L874.58 243.31L809.62 205.81L809.62 130.81zM874.58 543.31L939.53 580.81L939.53 655.81L874.58 693.31L809.62 655.81L809.62 580.81zM1004.49 93.31L1069.44 130.81L1069.44 205.81L1004.49 243.31L939.53 205.81L939.53 130.81zM939.53 205.81L1004.49 243.31L1004.49 318.31L939.53 355.81L874.58 318.31L874.58 243.31zM1134.39 543.31L1199.35 580.81L1199.35 655.81L1134.39 693.31L1069.44 655.81L1069.44 580.81zM1199.35 -19.19L1264.3 18.31L1264.3 93.31L1199.35 130.81L1134.39 93.31L1134.39 18.31zM1264.3 543.31L1329.25 580.81L1329.25 655.81L1264.3 693.31L1199.35 655.81L1199.35 580.81zM1394.21 318.31L1459.16 355.81L1459.16 430.81L1394.21 468.31L1329.26 430.81L1329.26 355.81zM1524.12 93.31L1589.07 130.81L1589.07 205.81L1524.12 243.31L1459.16 205.81L1459.16 130.81zM1524.12 543.31L1589.07 580.81L1589.07 655.81L1524.12 693.31L1459.16 655.81L1459.16 580.81z" stroke="#03305d" stroke-width="2"></path><path d="M22.68 205.81 a7.5 7.5 0 1 0 15 0 a7.5 7.5 0 1 0 -15 0zM87.63 243.31 a7.5 7.5 0 1 0 15 0 a7.5 7.5 0 1 0 -15 0zM87.63 318.31 a7.5 7.5 0 1 0 15 0 a7.5 7.5 0 1 0 -15 0zM22.68 355.81 a7.5 7.5 0 1 0 15 0 a7.5 7.5 0 1 0 -15 0zM-42.27 318.31 a7.5 7.5 0 1 0 15 0 a7.5 7.5 0 1 0 -15 0zM-42.27 243.31 a7.5 7.5 0 1 0 15 0 a7.5 7.5 0 1 0 -15 0zM22.68 430.81 a7.5 7.5 0 1 0 15 0 a7.5 7.5 0 1 0 -15 0zM87.63 468.31 a7.5 7.5 0 1 0 15 0 a7.5 7.5 0 1 0 -15 0zM87.63 543.31 a7.5 7.5 0 1 0 15 0 a7.5 7.5 0 1 0 -15 0zM22.68 580.81 a7.5 7.5 0 1 0 15 0 a7.5 7.5 0 1 0 -15 0zM-42.27 543.31 a7.5 7.5 0 1 0 15 0 a7.5 7.5 0 1 0 -15 0zM-42.27 468.31 a7.5 7.5 0 1 0 15 0 a7.5 7.5 0 1 0 -15 0zM217.54 93.31 a7.5 7.5 0 1 0 15 0 a7.5 7.5 0 1 0 -15 0zM282.5 130.81 a7.5 7.5 0 1 0 15 0 a7.5 7.5 0 1 0 -15 0zM282.5 205.81 a7.5 7.5 0 1 0 15 0 a7.5 7.5 0 1 0 -15 0zM217.54 243.31 a7.5 7.5 0 1 0 15 0 a7.5 7.5 0 1 0 -15 0zM152.59 205.81 a7.5 7.5 0 1 0 15 0 a7.5 7.5 0 1 0 -15 0zM152.59 130.81 a7.5 7.5 0 1 0 15 0 a7.5 7.5 0 1 0 -15 0zM217.54 543.31 a7.5 7.5 0 1 0 15 0 a7.5 7.5 0 1 0 -15 0zM282.5 580.81 a7.5 7.5 0 1 0 15 0 a7.5 7.5 0 1 0 -15 0zM282.5 655.81 a7.5 7.5 0 1 0 15 0 a7.5 7.5 0 1 0 -15 0zM217.54 693.31 a7.5 7.5 0 1 0 15 0 a7.5 7.5 0 1 0 -15 0zM152.59 655.81 a7.5 7.5 0 1 0 15 0 a7.5 7.5 0 1 0 -15 0zM152.59 580.81 a7.5 7.5 0 1 0 15 0 a7.5 7.5 0 1 0 -15 0zM347.45 243.31 a7.5 7.5 0 1 0 15 0 a7.5 7.5 0 1 0 -15 0zM347.45 318.31 a7.5 7.5 0 1 0 15 0 a7.5 7.5 0 1 0 -15 0zM282.5 355.81 a7.5 7.5 0 1 0 15 0 a7.5 7.5 0 1 0 -15 0zM217.54 318.31 a7.5 7.5 0 1 0 15 0 a7.5 7.5 0 1 0 -15 0zM412.4 355.81 a7.5 7.5 0 1 0 15 0 a7.5 7.5 0 1 0 -15 0zM412.4 430.81 a7.5 7.5 0 1 0 15 0 a7.5 7.5 0 1 0 -15 0zM347.45 468.31 a7.5 7.5 0 1 0 15 0 a7.5 7.5 0 1 0 -15 0zM282.5 430.81 a7.5 7.5 0 1 0 15 0 a7.5 7.5 0 1 0 -15 0zM477.36 468.31 a7.5 7.5 0 1 0 15 0 a7.5 7.5 0 1 0 -15 0zM477.36 543.31 a7.5 7.5 0 1 0 15 0 a7.5 7.5 0 1 0 -15 0zM412.4 580.81 a7.5 7.5 0 1 0 15 0 a7.5 7.5 0 1 0 -15 0zM347.45 543.31 a7.5 7.5 0 1 0 15 0 a7.5 7.5 0 1 0 -15 0zM542.31 205.81 a7.5 7.5 0 1 0 15 0 a7.5 7.5 0 1 0 -15 0zM607.26 243.31 a7.5 7.5 0 1 0 15 0 a7.5 7.5 0 1 0 -15 0zM607.26 318.31 a7.5 7.5 0 1 0 15 0 a7.5 7.5 0 1 0 -15 0zM542.31 355.81 a7.5 7.5 0 1 0 15 0 a7.5 7.5 0 1 0 -15 0zM477.36 318.31 a7.5 7.5 0 1 0 15 0 a7.5 7.5 0 1 0 -15 0zM477.36 243.31 a7.5 7.5 0 1 0 15 0 a7.5 7.5 0 1 0 -15 0zM672.22 205.81 a7.5 7.5 0 1 0 15 0 a7.5 7.5 0 1 0 -15 0zM737.17 243.31 a7.5 7.5 0 1 0 15 0 a7.5 7.5 0 1 0 -15 0zM737.17 318.31 a7.5 7.5 0 1 0 15 0 a7.5 7.5 0 1 0 -15 0zM672.22 355.81 a7.5 7.5 0 1 0 15 0 a7.5 7.5 0 1 0 -15 0zM802.12 -19.19 a7.5 7.5 0 1 0 15 0 a7.5 7.5 0 1 0 -15 0zM867.08 18.31 a7.5 7.5 0 1 0 15 0 a7.5 7.5 0 1 0 -15 0zM867.08 93.31 a7.5 7.5 0 1 0 15 0 a7.5 7.5 0 1 0 -15 0zM802.12 130.81 a7.5 7.5 0 1 0 15 0 a7.5 7.5 0 1 0 -15 0zM737.17 93.31 a7.5 7.5 0 1 0 15 0 a7.5 7.5 0 1 0 -15 0zM737.17 18.31 a7.5 7.5 0 1 0 15 0 a7.5 7.5 0 1 0 -15 0zM932.03 130.81 a7.5 7.5 0 1 0 15 0 a7.5 7.5 0 1 0 -15 0zM932.03 205.81 a7.5 7.5 0 1 0 15 0 a7.5 7.5 0 1 0 -15 0zM867.08 243.31 a7.5 7.5 0 1 0 15 0 a7.5 7.5 0 1 0 -15 0zM802.12 205.81 a7.5 7.5 0 1 0 15 0 a7.5 7.5 0 1 0 -15 0zM867.08 543.31 a7.5 7.5 0 1 0 15 0 a7.5 7.5 0 1 0 -15 0zM932.03 580.81 a7.5 7.5 0 1 0 15 0 a7.5 7.5 0 1 0 -15 0zM932.03 655.81 a7.5 7.5 0 1 0 15 0 a7.5 7.5 0 1 0 -15 0zM867.08 693.31 a7.5 7.5 0 1 0 15 0 a7.5 7.5 0 1 0 -15 0zM802.12 655.81 a7.5 7.5 0 1 0 15 0 a7.5 7.5 0 1 0 -15 0zM802.12 580.81 a7.5 7.5 0 1 0 15 0 a7.5 7.5 0 1 0 -15 0zM996.99 93.31 a7.5 7.5 0 1 0 15 0 a7.5 7.5 0 1 0 -15 0zM1061.94 130.81 a7.5 7.5 0 1 0 15 0 a7.5 7.5 0 1 0 -15 0zM1061.94 205.81 a7.5 7.5 0 1 0 15 0 a7.5 7.5 0 1 0 -15 0zM996.99 243.31 a7.5 7.5 0 1 0 15 0 a7.5 7.5 0 1 0 -15 0zM996.99 318.31 a7.5 7.5 0 1 0 15 0 a7.5 7.5 0 1 0 -15 0zM932.03 355.81 a7.5 7.5 0 1 0 15 0 a7.5 7.5 0 1 0 -15 0zM867.08 318.31 a7.5 7.5 0 1 0 15 0 a7.5 7.5 0 1 0 -15 0zM1126.89 543.31 a7.5 7.5 0 1 0 15 0 a7.5 7.5 0 1 0 -15 0zM1191.85 580.81 a7.5 7.5 0 1 0 15 0 a7.5 7.5 0 1 0 -15 0zM1191.85 655.81 a7.5 7.5 0 1 0 15 0 a7.5 7.5 0 1 0 -15 0zM1126.89 693.31 a7.5 7.5 0 1 0 15 0 a7.5 7.5 0 1 0 -15 0zM1061.94 655.81 a7.5 7.5 0 1 0 15 0 a7.5 7.5 0 1 0 -15 0zM1061.94 580.81 a7.5 7.5 0 1 0 15 0 a7.5 7.5 0 1 0 -15 0zM1191.85 -19.19 a7.5 7.5 0 1 0 15 0 a7.5 7.5 0 1 0 -15 0zM1256.8 18.31 a7.5 7.5 0 1 0 15 0 a7.5 7.5 0 1 0 -15 0zM1256.8 93.31 a7.5 7.5 0 1 0 15 0 a7.5 7.5 0 1 0 -15 0zM1191.85 130.81 a7.5 7.5 0 1 0 15 0 a7.5 7.5 0 1 0 -15 0zM1126.89 93.31 a7.5 7.5 0 1 0 15 0 a7.5 7.5 0 1 0 -15 0zM1126.89 18.31 a7.5 7.5 0 1 0 15 0 a7.5 7.5 0 1 0 -15 0zM1256.8 543.31 a7.5 7.5 0 1 0 15 0 a7.5 7.5 0 1 0 -15 0zM1321.75 580.81 a7.5 7.5 0 1 0 15 0 a7.5 7.5 0 1 0 -15 0zM1321.75 655.81 a7.5 7.5 0 1 0 15 0 a7.5 7.5 0 1 0 -15 0zM1256.8 693.31 a7.5 7.5 0 1 0 15 0 a7.5 7.5 0 1 0 -15 0zM1386.71 318.31 a7.5 7.5 0 1 0 15 0 a7.5 7.5 0 1 0 -15 0zM1451.66 355.81 a7.5 7.5 0 1 0 15 0 a7.5 7.5 0 1 0 -15 0zM1451.66 430.81 a7.5 7.5 0 1 0 15 0 a7.5 7.5 0 1 0 -15 0zM1386.71 468.31 a7.5 7.5 0 1 0 15 0 a7.5 7.5 0 1 0 -15 0zM1321.76 430.81 a7.5 7.5 0 1 0 15 0 a7.5 7.5 0 1 0 -15 0zM1321.76 355.81 a7.5 7.5 0 1 0 15 0 a7.5 7.5 0 1 0 -15 0zM1516.62 93.31 a7.5 7.5 0 1 0 15 0 a7.5 7.5 0 1 0 -15 0zM1581.57 130.81 a7.5 7.5 0 1 0 15 0 a7.5 7.5 0 1 0 -15 0zM1581.57 205.81 a7.5 7.5 0 1 0 15 0 a7.5 7.5 0 1 0 -15 0zM1516.62 243.31 a7.5 7.5 0 1 0 15 0 a7.5 7.5 0 1 0 -15 0zM1451.66 205.81 a7.5 7.5 0 1 0 15 0 a7.5 7.5 0 1 0 -15 0zM1451.66 130.81 a7.5 7.5 0 1 0 15 0 a7.5 7.5 0 1 0 -15 0zM1516.62 543.31 a7.5 7.5 0 1 0 15 0 a7.5 7.5 0 1 0 -15 0zM1581.57 580.81 a7.5 7.5 0 1 0 15 0 a7.5 7.5 0 1 0 -15 0zM1581.57 655.81 a7.5 7.5 0 1 0 15 0 a7.5 7.5 0 1 0 -15 0zM1516.62 693.31 a7.5 7.5 0 1 0 15 0 a7.5 7.5 0 1 0 -15 0zM1451.66 655.81 a7.5 7.5 0 1 0 15 0 a7.5 7.5 0 1 0 -15 0zM1451.66 580.81 a7.5 7.5 0 1 0 15 0 a7.5 7.5 0 1 0 -15 0z" fill="#03305d"></path><path d="M84.7 70.54L128 95.54L128 145.54L84.7 170.54L41.4 145.54L41.4 95.54zM41.4 145.54L84.7 170.54L84.7 220.54L41.4 245.54L-1.9 220.54L-1.9 170.54zM84.7 220.54L128 245.54L128 295.54L84.7 320.54L41.4 295.54L41.4 245.54zM171.31 220.54L214.61 245.54L214.61 295.54L171.31 320.54L128 295.54L128 245.54zM128 295.54L171.31 320.54L171.31 370.54L128 395.54L84.7 370.54L84.7 320.54zM171.31 370.54L214.61 395.54L214.61 445.54L171.31 470.54L128 445.54L128 395.54zM128 445.54L171.31 470.54L171.31 520.54L128 545.54L84.7 520.54L84.7 470.54zM214.61 -4.46L257.91 20.54L257.91 70.54L214.61 95.54L171.31 70.54L171.31 20.54zM257.91 220.54L301.21 245.54L301.21 295.54L257.91 320.54L214.61 295.54L214.61 245.54zM257.91 370.54L301.21 395.54L301.21 445.54L257.91 470.54L214.61 445.54L214.61 395.54zM257.91 520.54L301.21 545.54L301.21 595.54L257.91 620.54L214.61 595.54L214.61 545.54zM301.21 -4.46L344.52 20.54L344.52 70.54L301.21 95.54L257.91 70.54L257.91 20.54zM301.21 145.54L344.52 170.54L344.52 220.54L301.21 245.54L257.91 220.54L257.91 170.54zM344.52 370.54L387.82 395.54L387.82 445.54L344.52 470.54L301.21 445.54L301.21 395.54zM387.82 -4.46L431.12 20.54L431.12 70.54L387.82 95.54L344.52 70.54L344.52 20.54zM431.12 370.54L474.43 395.54L474.43 445.54L431.12 470.54L387.82 445.54L387.82 395.54zM431.12 520.54L474.43 545.54L474.43 595.54L431.12 620.54L387.82 595.54L387.82 545.54zM474.43 -4.46L517.73 20.54L517.73 70.54L474.43 95.54L431.12 70.54L431.12 20.54zM517.73 70.54L561.03 95.54L561.03 145.54L517.73 170.54L474.43 145.54L474.43 95.54zM517.73 220.54L561.03 245.54L561.03 295.54L517.73 320.54L474.43 295.54L474.43 245.54zM474.43 295.54L517.73 320.54L517.73 370.54L474.43 395.54L431.12 370.54L431.12 320.54zM604.33 370.54L647.63 395.54L647.63 445.54L604.33 470.54L561.03 445.54L561.03 395.54zM604.33 520.54L647.63 545.54L647.63 595.54L604.33 620.54L561.03 595.54L561.03 545.54zM647.63 295.54L690.94 320.54L690.94 370.54L647.63 395.54L604.33 370.54L604.33 320.54zM690.94 520.54L734.24 545.54L734.24 595.54L690.94 620.54L647.63 595.54L647.63 545.54zM734.24 -4.46L777.54 20.54L777.54 70.54L734.24 95.54L690.94 70.54L690.94 20.54zM777.54 70.54L820.85 95.54L820.85 145.54L777.54 170.54L734.24 145.54L734.24 95.54zM777.54 220.54L820.85 245.54L820.85 295.54L777.54 320.54L734.24 295.54L734.24 245.54zM820.85 -4.46L864.15 20.54L864.15 70.54L820.85 95.54L777.54 70.54L777.54 20.54zM864.15 70.54L907.45 95.54L907.45 145.54L864.15 170.54L820.85 145.54L820.85 95.54zM994.06 145.54L1037.36 170.54L1037.36 220.54L994.06 245.54L950.75 220.54L950.75 170.54zM1037.36 220.54L1080.66 245.54L1080.66 295.54L1037.36 320.54L994.06 295.54L994.06 245.54zM994.06 295.54L1037.36 320.54L1037.36 370.54L994.06 395.54L950.75 370.54L950.75 320.54zM1037.36 520.54L1080.66 545.54L1080.66 595.54L1037.36 620.54L994.06 595.54L994.06 545.54zM1123.96 70.54L1167.27 95.54L1167.27 145.54L1123.96 170.54L1080.66 145.54L1080.66 95.54zM1080.66 145.54L1123.96 170.54L1123.96 220.54L1080.66 245.54L1037.36 220.54L1037.36 170.54zM1080.66 295.54L1123.96 320.54L1123.96 370.54L1080.66 395.54L1037.36 370.54L1037.36 320.54zM1123.96 370.54L1167.27 395.54L1167.27 445.54L1123.96 470.54L1080.66 445.54L1080.66 395.54zM1210.57 70.54L1253.87 95.54L1253.87 145.54L1210.57 170.54L1167.27 145.54L1167.27 95.54zM1167.27 145.54L1210.57 170.54L1210.57 220.54L1167.27 245.54L1123.96 220.54L1123.96 170.54zM1210.57 220.54L1253.87 245.54L1253.87 295.54L1210.57 320.54L1167.27 295.54L1167.27 245.54zM1167.27 295.54L1210.57 320.54L1210.57 370.54L1167.27 395.54L1123.96 370.54L1123.96 320.54zM1167.27 445.54L1210.57 470.54L1210.57 520.54L1167.27 545.54L1123.96 520.54L1123.96 470.54zM1210.57 520.54L1253.87 545.54L1253.87 595.54L1210.57 620.54L1167.27 595.54L1167.27 545.54zM1297.17 70.54L1340.48 95.54L1340.48 145.54L1297.17 170.54L1253.87 145.54L1253.87 95.54zM1253.87 145.54L1297.17 170.54L1297.17 220.54L1253.87 245.54L1210.57 220.54L1210.57 170.54zM1297.17 520.54L1340.48 545.54L1340.48 595.54L1297.17 620.54L1253.87 595.54L1253.87 545.54zM1340.48 -4.46L1383.78 20.54L1383.78 70.54L1340.48 95.54L1297.17 70.54L1297.17 20.54zM1383.78 70.54L1427.08 95.54L1427.08 145.54L1383.78 170.54L1340.48 145.54L1340.48 95.54zM1383.78 220.54L1427.08 245.54L1427.08 295.54L1383.78 320.54L1340.48 295.54L1340.48 245.54zM1340.48 295.54L1383.78 320.54L1383.78 370.54L1340.48 395.54L1297.17 370.54L1297.17 320.54zM1383.78 520.54L1427.08 545.54L1427.08 595.54L1383.78 620.54L1340.48 595.54L1340.48 545.54zM1427.08 -4.46L1470.38 20.54L1470.38 70.54L1427.08 95.54L1383.78 70.54L1383.78 20.54zM1470.38 220.54L1513.69 245.54L1513.69 295.54L1470.38 320.54L1427.08 295.54L1427.08 245.54zM1470.38 370.54L1513.69 395.54L1513.69 445.54L1470.38 470.54L1427.08 445.54L1427.08 395.54z" stroke="rgba(6, 80, 156, 0.93)" stroke-width="2"></path></g><defs><mask id="SvgjsMask1000"><rect width="1440" height="560" fill="#ffffff"></rect></mask></defs></svg>